# xmcd
#
# Track frame offsets: 
#        150
#        18183
#        31691
#        40748
#        53227
#        73361
#        84838
#        98778
#        110692
#        129088
#        144692
#        155848
#        172191
#        190398
#
# Disc length: 2752 seconds
#
# Revision: 0
# Processed by: cddbd v1.5.2PL0 Copyright (c) Steve Scherf et al.
# Submitted via: ExactAudioCopy v1.0b1
#
DISCID=bd0abe0e
DTITLE=DR Pigekoret, DR SymfoniOrkestret and Michael Bojesen - Jul med .
DTITLE=
DYEAR=2010
DGENRE=Christmas
TTITLE0=Det kimer nu til julefest
TTITLE1=Velkommen igen, Guds engle små
TTITLE2=Barn Jesus i en krybbe lå
TTITLE3=The Silver Stars
TTITLE4=Nativity Carol
TTITLE5=Forunderligt at sige
TTITLE6=En rose så jeg skyde
TTITLE7=Julen har bragt velsignet bud
TTITLE8=Kimer, I klokker!
TTITLE9=Her kommer, Jesus dine små
TTITLE10=Lad det klinge sødt i sky
TTITLE11=Luk julefreden ind
TTITLE12=Julens klare bud
TTITLE13=Dejlig er jorden
EXTD=
EXTT0=
EXTT1=
EXTT2=
EXTT3=
EXTT4=
EXTT5=
EXTT6=
EXTT7=
EXTT8=
EXTT9=
EXTT10=
EXTT11=
EXTT12=
EXTT13=
PLAYORDER=
